<svg version="1.1" xmlns="http://www.w3.org/2000/svg" viewBox="0 0 126.66478989533346 112.90155452286172" width="126.66478989533346" height="112.90155452286172">
  <!-- svg-source:excalidraw -->
  
  <defs>
    <style class="style-fonts">
      @font-face {
        font-family: "Virgil";
        src: url("https://excalidraw.com/Virgil.woff2");
      }
      @font-face {
        font-family: "Cascadia";
        src: url("https://excalidraw.com/Cascadia.woff2");
      }
    </style>
  </defs>
  <g stroke-linecap="round"><g transform="translate(12.34505899431474 12.271187243813074) rotate(0 51.096951637629616 0.20197829231619835)"><path d="M-1.42 1.42 C33.86 -0.98, 65.19 -0.11, 103.61 -1.02 M0.87 -0.67 C41.06 -1.15, 81.58 -0.49, 103.29 -0.86" stroke="#228be6" stroke-width="4" fill="none"></path></g></g><mask></mask><g stroke-linecap="round"><g transform="translate(116.19526465124648 11.029949726001178) rotate(0 -15.42252613703181 26.33636052338727)"><path d="M0.47 0.45 C-6.28 13.03, -14.99 26.57, -31.31 53.14 M-0.79 -0.91 C-10.68 20.91, -23.85 40.95, -31.02 53.58" stroke="#228be6" stroke-width="4" fill="none"></path></g></g><mask></mask><g stroke-linecap="round"><g transform="translate(74.24718741208494 79.90526122958545) rotate(0 -6.566795777111679 11.688157386128523)"><path d="M-1.42 0.38 C-3.76 6.23, -8.72 14.27, -11.83 22.74 M-0.17 0.71 C-2.33 4.33, -5.56 10.81, -12.96 23" stroke="#228be6" stroke-width="4" fill="none"></path></g></g><mask></mask><g stroke-linecap="round"><g transform="translate(27.222533310019003 45.952351227066856) rotate(0 15.607499377901036 26.48324929248895)"><path d="M-0.99 -0.86 C10.69 17.48, 19.39 37.86, 32.2 53.69 M-0.75 -0.69 C7.43 11.91, 14.5 25.03, 31.63 53.83" stroke="#228be6" stroke-width="4" fill="none"></path></g></g><mask></mask><g stroke-linecap="round"><g transform="translate(73.1656973670996 81.36674240201046) rotate(0 -16.32915876502318 -9.17839116179698)"><path d="M-0.67 -0.74 C-9.66 -3.9, -18.62 -8.89, -32.44 -17.62 M-0.22 -0.78 C-7.46 -3.71, -15.32 -8.87, -30.4 -16.78" stroke="#228be6" stroke-width="4" fill="none"></path></g></g><mask></mask><g stroke-linecap="round"><g transform="translate(84.75058086667752 66.05814634899662) rotate(0 -23.392209482502665 -0.7185123647739147)"><path d="M-0.04 -0.96 C-15.43 1.65, -26.94 0.1, -46.74 -1.86 M-0.98 0.33 C-13.28 0.13, -26.65 -0.57, -44.31 0.32" stroke="#228be6" stroke-width="4" fill="none"></path></g></g><mask></mask><g stroke-linecap="round"><g transform="translate(9.862583958691062 14.75366227943664) rotate(0 3.714135171448845 5.852782645949333)"><path d="M0.14 0.17 C0.32 3.14, 2.26 5.07, 7.29 10.58 M0.3 0.07 C2.22 3.94, 4.56 7.58, 6.74 11.64" stroke="#228be6" stroke-width="4" fill="none"></path></g></g><mask></mask><g stroke-linecap="round"><g transform="translate(18.13750074410393 28.407274975367955) rotate(0 35.08532120305074 -0.5967249757385389)"><path d="M-0.75 -1.59 C26.19 0.14, 53.89 0.12, 70.9 -0.62 M0.16 -0.38 C16.97 0.27, 34.54 1.08, 70.92 -0.57" stroke="#228be6" stroke-width="4" fill="none"></path></g></g><mask></mask><g stroke-linecap="round"><g transform="translate(25.17118001170479 44.54336270692306) rotate(0 30.95451036922708 -7.469020497507017)"><path d="M-0.9 -1.26 C19.68 -4.76, 37.42 -9.36, 62.04 -13.79 M-0.39 -0.08 C21.76 -4.69, 43.02 -10.49, 62.81 -14.85" stroke="#228be6" stroke-width="4" fill="none"></path></g></g><mask></mask><g stroke-linecap="round" transform="translate(16.210244987939063 12.096633466853973) rotate(0 45.004646703863784 7.441890462959009)"><path d="M0 0 L90.01 0 L90.01 14.88 L0 14.88" stroke="none" stroke-width="0" fill="#228be6"></path><path d="M0 0 C20.52 0, 41.03 0, 90.01 0 M0 0 C18.57 0, 37.14 0, 90.01 0 M90.01 0 C90.01 5.41, 90.01 10.82, 90.01 14.88 M90.01 0 C90.01 5.92, 90.01 11.83, 90.01 14.88 M90.01 14.88 C58.63 14.88, 27.25 14.88, 0 14.88 M90.01 14.88 C56.75 14.88, 23.5 14.88, 0 14.88 M0 14.88 C0 9.06, 0 3.23, 0 0 M0 14.88 C0 11.39, 0 7.89, 0 0" stroke="#228be6" stroke-width="1" fill="none"></path></g><g stroke-linecap="round" transform="translate(86.30903008910207 27.104865558617576) rotate(0 2.7685560633242403 3.60224585927358)"><path d="M0 0 L5.54 0 L5.54 7.2 L0 7.2" stroke="none" stroke-width="0" fill="#228be6"></path><path d="M0 0 C2.18 0, 4.36 0, 5.54 0 M0 0 C1.97 0, 3.93 0, 5.54 0 M5.54 0 C5.54 2.11, 5.54 4.21, 5.54 7.2 M5.54 0 C5.54 1.85, 5.54 3.7, 5.54 7.2 M5.54 7.2 C4.26 7.2, 2.98 7.2, 0 7.2 M5.54 7.2 C3.57 7.2, 1.61 7.2, 0 7.2 M0 7.2 C0 5.24, 0 3.28, 0 0 M0 7.2 C0 4.88, 0 2.55, 0 0" stroke="#228be6" stroke-width="1" fill="none"></path></g><g stroke-linecap="round" transform="translate(13.172377365826492 12.06370509979979) rotate(0 2.7685560633242403 3.60224585927358)"><path d="M0 0 L5.54 0 L5.54 7.2 L0 7.2" stroke="none" stroke-width="0" fill="#228be6"></path><path d="M0 0 C1.24 0, 2.49 0, 5.54 0 M0 0 C1.89 0, 3.77 0, 5.54 0 M5.54 0 C5.54 1.8, 5.54 3.59, 5.54 7.2 M5.54 0 C5.54 2.26, 5.54 4.52, 5.54 7.2 M5.54 7.2 C3.43 7.2, 1.33 7.2, 0 7.2 M5.54 7.2 C4.35 7.2, 3.15 7.2, 0 7.2 M0 7.2 C0 4.86, 0 2.51, 0 0 M0 7.2 C0 5.64, 0 4.09, 0 0" stroke="#228be6" stroke-width="1" fill="none"></path></g><g stroke-linecap="round" transform="translate(34.52103886843531 35.64962041043259) rotate(343.50948072579104 29.405925882009058 11.597287403207133)"><path d="M0 0 L58.81 0 L58.81 23.19 L0 23.19" stroke="none" stroke-width="0" fill="#228be6"></path><path d="M0 0 C14.98 0, 29.95 0, 58.81 0 M0 0 C15.48 0, 30.96 0, 58.81 0 M58.81 0 C58.81 8.03, 58.81 16.05, 58.81 23.19 M58.81 0 C58.81 7.34, 58.81 14.67, 58.81 23.19 M58.81 23.19 C44.45 23.19, 30.09 23.19, 0 23.19 M58.81 23.19 C37.75 23.19, 16.69 23.19, 0 23.19 M0 23.19 C0 16.58, 0 9.97, 0 0 M0 23.19 C0 15.01, 0 6.83, 0 0" stroke="#228be6" stroke-width="1" fill="none"></path></g><g stroke-linecap="round" transform="translate(64.65210094821487 31.538274959268847) rotate(301.40060380565734 28.695858399599274 6.169217558236596)"><path d="M0 0 L57.39 0 L57.39 12.34 L0 12.34" stroke="none" stroke-width="0" fill="#228be6"></path><path d="M0 0 C12.02 0, 24.03 0, 57.39 0 M0 0 C16.48 0, 32.96 0, 57.39 0 M57.39 0 C57.39 4.69, 57.39 9.38, 57.39 12.34 M57.39 0 C57.39 4.03, 57.39 8.07, 57.39 12.34 M57.39 12.34 C35.94 12.34, 14.48 12.34, 0 12.34 M57.39 12.34 C39.01 12.34, 20.63 12.34, 0 12.34 M0 12.34 C0 9.86, 0 7.39, 0 0 M0 12.34 C0 8.77, 0 5.19, 0 0" stroke="#228be6" stroke-width="1" fill="none"></path></g><g stroke-linecap="round" transform="translate(15.733104298436842 66.43898733029664) rotate(59.06903172820774 31.96048222393722 4.104799152467763)"><path d="M0 0 L63.92 0 L63.92 8.21 L0 8.21" stroke="none" stroke-width="0" fill="#228be6"></path><path d="M0 0 C15.35 0, 30.69 0, 63.92 0 M0 0 C16.57 0, 33.14 0, 63.92 0 M63.92 0 C63.92 2.47, 63.92 4.93, 63.92 8.21 M63.92 0 C63.92 1.8, 63.92 3.61, 63.92 8.21 M63.92 8.21 C44.93 8.21, 25.93 8.21, 0 8.21 M63.92 8.21 C43.23 8.21, 22.54 8.21, 0 8.21 M0 8.21 C0 5.71, 0 3.21, 0 0 M0 8.21 C0 5.22, 0 2.24, 0 0" stroke="#228be6" stroke-width="1" fill="none"></path></g><g stroke-linecap="round" transform="translate(52.53248269287292 57.68746210991867) rotate(355.7426414467874 13.565617847926376 3.454230671755795)"><path d="M0 0 L27.13 0 L27.13 6.91 L0 6.91" stroke="none" stroke-width="0" fill="#228be6"></path><path d="M0 0 C6.48 0, 12.96 0, 27.13 0 M0 0 C5.53 0, 11.06 0, 27.13 0 M27.13 0 C27.13 2.75, 27.13 5.5, 27.13 6.91 M27.13 0 C27.13 2.18, 27.13 4.36, 27.13 6.91 M27.13 6.91 C21.13 6.91, 15.14 6.91, 0 6.91 M27.13 6.91 C17.88 6.91, 8.64 6.91, 0 6.91 M0 6.91 C0 4.18, 0 1.46, 0 0 M0 6.91 C0 5.39, 0 3.88, 0 0" stroke="#228be6" stroke-width="1" fill="none"></path></g><g stroke-linecap="round" transform="translate(52.887262012564065 67.55002935947368) rotate(301.40060380565734 4.92138961472358 12.894237320806155)"><path d="M0 0 L9.84 0 L9.84 25.79 L0 25.79" stroke="none" stroke-width="0" fill="#228be6"></path><path d="M0 0 C3.51 0, 7.03 0, 9.84 0 M0 0 C2.37 0, 4.74 0, 9.84 0 M9.84 0 C9.84 7.06, 9.84 14.11, 9.84 25.79 M9.84 0 C9.84 9.09, 9.84 18.18, 9.84 25.79 M9.84 25.79 C7.43 25.79, 5.02 25.79, 0 25.79 M9.84 25.79 C7.81 25.79, 5.77 25.79, 0 25.79 M0 25.79 C0 18.67, 0 11.56, 0 0 M0 25.79 C0 18.64, 0 11.48, 0 0" stroke="#228be6" stroke-width="1" fill="none"></path></g></svg>